<svg width="430" height="932" viewBox="0 0 430 932" fill="none" xmlns="http://www.w3.org/2000/svg">
<rect width="430" height="932" fill="#267C77"/>
<path d="M135.659 466H131.227L144.045 431.091H148.409L161.227 466H156.795L146.364 436.614H146.091L135.659 466ZM137.295 452.364H155.159V456.114H137.295V452.364ZM193.528 431.091H197.756V456.045C197.756 458.273 197.347 460.165 196.528 461.722C195.71 463.278 194.557 464.46 193.068 465.267C191.58 466.074 189.824 466.477 187.801 466.477C185.892 466.477 184.193 466.131 182.705 465.438C181.216 464.733 180.045 463.733 179.193 462.438C178.341 461.142 177.915 459.602 177.915 457.818H182.074C182.074 458.807 182.318 459.67 182.807 460.409C183.307 461.136 183.989 461.705 184.852 462.114C185.716 462.523 186.699 462.727 187.801 462.727C189.017 462.727 190.051 462.472 190.903 461.96C191.756 461.449 192.403 460.699 192.847 459.71C193.301 458.71 193.528 457.489 193.528 456.045V431.091ZM219.727 431.091H224.773L236.636 460.068H237.045L248.909 431.091H253.955V466H250V439.477H249.659L238.75 466H234.932L224.023 439.477H223.682V466H219.727V431.091ZM262.43 466V431.091H283.499V434.841H266.658V446.636H282.408V450.386H266.658V462.25H283.771V466H262.43ZM295.345 431.091V466H291.118V431.091H295.345Z" fill="white"/>
</svg>
