<svg width="512" height="512" viewBox="0 0 512 512" fill="none" xmlns="http://www.w3.org/2000/svg">
<g clip-path="url(#clip0_1_6)">
<path d="M512 0H0V512H512V0Z" fill="#267C77"/>
<path d="M176.659 273H172.227L185.045 238.091H189.409L202.227 273H197.795L187.364 243.614H187.091L176.659 273ZM178.295 259.364H196.159V263.114H178.295V259.364ZM234.528 238.091H238.756V263.045C238.756 265.273 238.347 267.165 237.528 268.722C236.71 270.278 235.557 271.46 234.068 272.267C232.58 273.074 230.824 273.477 228.801 273.477C226.892 273.477 225.193 273.131 223.705 272.438C222.216 271.733 221.045 270.733 220.193 269.438C219.341 268.142 218.915 266.602 218.915 264.818H223.074C223.074 265.807 223.318 266.67 223.807 267.409C224.307 268.136 224.989 268.705 225.852 269.114C226.716 269.523 227.699 269.727 228.801 269.727C230.017 269.727 231.051 269.472 231.903 268.96C232.756 268.449 233.403 267.699 233.847 266.71C234.301 265.71 234.528 264.489 234.528 263.045V238.091ZM260.727 238.091H265.773L277.636 267.068H278.045L289.909 238.091H294.955V273H291V246.477H290.659L279.75 273H275.932L265.023 246.477H264.682V273H260.727V238.091ZM303.43 273V238.091H324.499V241.841H307.658V253.636H323.408V257.386H307.658V269.25H324.771V273H303.43ZM336.345 238.091V273H332.118V238.091H336.345Z" fill="white"/>
</g>
<defs>
<clipPath id="clip0_1_6">
<rect width="512" height="512" fill="white"/>
</clipPath>
</defs>
</svg>
